# xmcd
#
# Track frame offsets:
# 187
# 15385
# 63615
# 100725
# 139370
# 197127
# 238050
# 300602
#
# Disc length: 4355 seconds
#
# Revision: 2
# Processed by: cddbd v1.5.2PL0 Copyright (c) Steve Scherf et al.
# Submitted via: plextools 2.35
#
DISCID=6b110108
DTITLE=Zero - Live - Go Hear Nothin'
DYEAR=1991
DGENRE=Blues
TTITLE0=Zero - Who Nose
TTITLE1=Zero - Golden Road
TTITLE2=Zero - Super Sonic Transport
TTITLE3=Zero - Straight Jackets
TTITLE4=Zero - Severe Tire Damage
TTITLE5=Zero - Gregg's Egg's
TTITLE6=Zero - Tangled Hangers
TTITLE7=Zero - S.T.D.
EXTD=
EXTT0=
EXTT1=
EXTT2=
EXTT3=
EXTT4=
EXTT5=
EXTT6=
EXTT7=
PLAYORDER=
